<?xml version="1.0" encoding="UTF-8" standalone="no"?>
<!-- Created with Inkscape (http://www.inkscape.org/) -->

<svg
   width="255mm"
   height="60mm"
   viewBox="0 0 255 60"
   version="1.1"
   id="svg1681"
   xmlns="http://www.w3.org/2000/svg"
   xmlns:svg="http://www.w3.org/2000/svg">
  <defs
     id="defs1678" />
  <g
     id="layer1">
    <path
       id="path1525"
       style="fill:#222938;fill-opacity:0.1;stroke:#ffffff;stroke-width:0.264453;stroke-miterlimit:4;stroke-dasharray:none;stroke-opacity:0.1"
       d="m 103.13721,59.328308 c 1.88827,-2.841653 3.32272,-5.967895 4.10322,-8.942558 0.20003,-0.762317 0.5402,-2.393984 0.5402,-2.591109 0,-0.04679 -0.30725,-0.281796 -0.68279,-0.52222 -3.44453,-2.205188 -6.15525,-5.261779 -7.935251,-8.947698 l -0.464621,-0.962105 -0.430852,-0.09786 c -1.01223,-0.229887 -2.414153,-0.416412 -3.146147,-0.418595 -0.430363,-0.0013 -0.427092,-0.08326 -0.03601,0.902146 1.033375,2.603499 2.782821,5.156291 5.398501,7.877497 l 0.85034,0.884652 -0.57163,-0.389488 c -1.439903,-0.981089 -3.359849,-2.747161 -4.413099,-4.059412 -0.258982,-0.322662 -0.50454,-0.586657 -0.54568,-0.586657 -0.04111,0 -0.299891,0.102641 -0.574986,0.228098 -0.879449,0.401076 -2.939308,1.202407 -4.191556,1.630612 -2.641077,0.903117 -5.660895,1.68512 -8.582909,2.222601 l -0.206419,0.03797 v -1.107109 c 0,-0.608911 -0.03201,-1.465756 -0.07112,-1.904091 -0.03911,-0.438344 -0.05631,-0.811787 -0.03811,-0.829876 0.0181,-0.01807 0.514552,-0.156215 1.103203,-0.306946 1.973888,-0.505432 4.344351,-1.280041 6.310269,-2.062031 0.884689,-0.351907 3.657578,-1.576308 3.860126,-1.704484 0.06282,-0.03977 0.04401,-0.131932 -0.08402,-0.411205 -0.159278,-0.347391 -0.173631,-0.359953 -0.411188,-0.359953 -0.135382,0 -0.583448,0.04362 -0.995706,0.09693 -3.041102,0.39325 -6.310198,1.41676 -9.954574,3.116644 -1.121397,0.523066 -1.451515,0.612681 -3.561517,0.966801 -1.785603,0.299675 -5.393051,0.698298 -5.485362,0.606127 -0.0134,-0.01337 0.515102,-0.377181 1.174399,-0.80849 3.478815,-2.275804 5.243915,-3.317906 7.677263,-4.532621 3.547823,-1.771052 6.268279,-2.718581 9.705816,-3.380526 l 0.369087,-0.07109 -0.04401,-0.199912 c -0.05291,-0.24058 0.04261,-0.164632 -1.519911,-1.207779 -2.953002,-1.971381 -5.246937,-3.262148 -7.793812,-4.385467 -5.594668,-2.46758 -11.014226,-3.192543 -15.852845,-2.12061 -2.635566,0.583875 -5.113125,1.712961 -8.045391,3.666488 l -1.272282,0.847614 -1.17503,-0.07479 c -1.163536,-0.07405 -2.521589,-0.216727 -2.575512,-0.270577 -0.02831,-0.02831 1.714588,-1.456808 2.702542,-2.21499 4.393805,-3.371933 8.266735,-5.081906 12.861806,-5.678732 1.383078,-0.179637 5.127748,-0.163142 6.581733,0.029 4.83739,0.639242 9.391911,2.236781 14.600548,5.121263 0.541469,0.29986 1.010861,0.550575 1.043108,0.557152 0.03221,0.0066 0.09632,-0.316255 0.142484,-0.717402 0.04611,-0.401146 0.122899,-0.939322 0.17063,-1.195947 l 0.08672,-0.466589 -0.769122,-0.795049 c -0.843861,-0.872299 -1.821414,-1.736093 -2.801617,-2.475558 -0.349332,-0.263547 -0.628969,-0.500004 -0.621407,-0.525474 0.03141,-0.106005 2.582794,-3.23025 2.637907,-3.23025 0.12799,0 1.694322,1.147085 2.616011,1.9158 0.242278,0.202077 0.460319,0.367406 0.484535,0.367406 0.02421,0 0.07912,-0.08461 0.122019,-0.188008 0.07712,-0.185922 0.06952,-0.197016 -0.687993,-0.998902 -0.867056,-0.917888 -1.772161,-1.987253 -2.255206,-2.664483 -0.179793,-0.25206 -0.344792,-0.458974 -0.366667,-0.459812 -0.04351,-0.0016 -1.230802,1.431107 -2.468946,2.979335 -0.959459,1.199738 -2.867481,3.491823 -2.992921,3.595346 -0.07272,0.06002 -0.285338,0.0044 -1.042248,-0.2725 -0.522994,-0.191352 -1.421617,-0.490783 -1.996944,-0.665403 -0.575327,-0.174616 -1.056151,-0.327576 -1.068494,-0.339904 -0.0123,-0.01231 0.201768,-0.289092 0.475803,-0.615029 0.764172,-0.908916 1.64343,-2.058283 3.194558,-4.175983 1.547299,-2.112465 2.343217,-3.165662 3.160402,-4.181988 0.402485,-0.50056 0.523184,-0.69393 0.494847,-0.792779 -0.441435,-1.5401935 -0.564404,-2.4797205 -0.527455,-4.0298895 0.03251,-1.365109 0.153386,-2.106162 0.50674,-3.107139 0.180743,-0.51204 0.533587,-1.25658 0.466751,-0.984924 -0.506951,2.060745 -0.09032,5.130058 1.008069,7.4269445 0.466032,0.974516 1.414446,2.433408 2.077894,3.196305 1.367365,1.57234 1.971638,2.158984 3.069459,2.979892 l 0.494358,0.369658 0.538988,-0.739297 c 2.115863,-2.902176 4.781694,-5.164964 7.843444,-6.6576105 l 0.99965,-0.487343 -0.0353,-0.348822 c -0.20217,-1.997388 -0.88193,-3.588166 -2.0004,-4.681297 -0.65392,-0.639107 -1.43649,-1.06025 -2.395617,-1.289231 -0.769172,-0.183627 -1.890008,-0.142331 -2.712684,0.09994 -1.657554,0.488136 -3.019557,1.605317 -3.716312,3.048289 -0.425662,0.881552 -0.534448,1.351048 -0.529046,2.283206 0.008,1.394238 0.373758,2.3426745 1.528323,3.9638995 0.265873,0.373321 -0.743937,-0.526591 -1.142582,-1.018242 -1.504087,-1.8550225 -1.783393,-4.3251435 -0.727502,-6.4338885 1.075235,-2.147373 3.401347,-3.82455903 5.806389,-4.18654203 1.033405,-0.155544 1.798221,-0.111802 2.948781,0.168634 l 0.54769,0.13349 0.62733,-0.164721 c 1.43144,-0.375846 2.12142,-0.451667 4.12067,-0.452804 1.45802,-7.93e-4 1.99419,0.02257 2.57237,0.112295 3.44875,0.535153 6.62906,2.01272803 8.8921,4.13128403 0.56637,0.530197 1.08664,1.102789 0.88921,0.978638 -0.0873,-0.05492 -0.35885,-0.227958 -0.60339,-0.384529 -1.79868,-1.151661 -4.08293,-1.981564 -6.55056,-2.37993 -0.53966,-0.08711 -1.07796,-0.111497 -2.46858,-0.111796 -1.8148,-5.28e-4 -2.35984,0.049 -3.60557,0.326708 l -0.42981,0.09581 0.29709,0.327634 c 0.37855,0.417465 1.01918,1.390708 1.33107,2.02216 0.20277,0.410501 0.26277,0.484539 0.37177,0.458816 0.9988,-0.235722 3.49325,-0.351894 4.7725,-0.222259 2.14132,0.216994 4.04016,0.753807 5.86421,1.657837 3.22098,1.596365 5.69192,4.0916505 7.31114,7.3831585 0.78336,1.592382 1.24752,3.001157 1.51848,4.608705 0.11003,0.652731 0.27108,2.330367 0.2288,2.383275 -0.007,0.0085 -0.10594,-0.319673 -0.22027,-0.729358 -1.03434,-3.706454 -3.45494,-7.015879 -6.67644,-9.128041 -2.06111,-1.351358 -4.62421,-2.2405525 -7.20095,-2.4981795 -1.28853,-0.128825 -3.57819,-0.01852 -4.64177,0.223632 -0.12314,0.02804 -0.12703,0.08091 -0.12718,1.7282415 0,1.624913 -0.0506,2.25391 -0.26771,3.337912 -0.0351,0.175554 -0.027,0.185809 0.11501,0.144878 0.82768,-0.238564 2.19694,-0.557727 2.78872,-0.650025 1.02603,-0.160027 3.14736,-0.159054 4.03321,0.0019 3.67085,0.66676 6.67329,2.932561 8.31676,6.276292 1.22263,2.48749 1.50897,5.384136 0.7549,7.636479 -0.88437,2.641581 -3.11924,4.717432 -5.75063,5.341472 -1.59498,0.378257 -2.98613,0.274461 -4.22672,-0.315357 -1.25862,-0.5984 -2.10642,-1.445364 -2.67723,-2.674659 -0.63066,-1.358114 -0.66576,-2.72438 -0.10053,-3.912862 0.43775,-0.920418 1.51419,-1.775981 2.48865,-1.97798 0.57228,-0.118628 1.37912,-0.05444 1.81205,0.144132 0.48283,0.221479 0.9711,0.688608 1.20983,1.157479 0.35099,0.68933 0.31021,1.583682 -0.0956,2.098919 -0.15482,0.196533 -0.66271,0.534144 -0.80356,0.534144 -0.0524,0 0.0346,-0.08223 0.19327,-0.182728 1.35124,-0.855682 0.55232,-3.04211 -1.15618,-3.164175 -1.46836,-0.104906 -2.85489,1.219063 -2.85489,2.726061 0,0.753774 0.38393,1.763351 0.9009,2.369008 0.98882,1.15846 2.38554,1.6381 3.86515,1.327312 1.72286,-0.361889 3.19665,-1.517497 3.93105,-3.082354 0.67754,-1.443747 0.6909,-2.910789 0.0429,-4.714992 -0.69025,-1.921849 -2.17,-3.538385 -4.1409,-4.52367 -1.50095,-0.750343 -3.17833,-1.032745 -4.83378,-0.813805 -3.95801,0.523465 -7.33865,2.857844 -9.29621,6.419165 l -0.2128,0.38714 0.92059,0.913019 c 3.69278,3.662336 6.08836,8.38386 6.85222,13.50523 0.3582,2.401717 0.30425,4.919972 -0.16179,7.551303 l -0.0405,0.228891 0.7214,0.418124 c 3.03458,1.758836 6.55706,2.723693 10.14674,2.779352 0.51481,0.008 0.52811,0.01152 0.22896,0.06085 -0.62742,0.103487 -3.20524,0.141395 -4.12849,0.06071 -2.28277,-0.199484 -4.48628,-0.744764 -6.52559,-1.614811 -0.74684,-0.318639 -0.8104,-0.334343 -0.8104,-0.200274 0,0.04993 -0.14269,0.530869 -0.3171,1.068755 -1.16813,3.602473 -3.23912,7.025025 -5.74567,9.495415 l -0.61134,0.60251 0.3793,-0.57081 z m 4.87888,-15.53104 c -0.0254,-1.36514 -0.0693,-2.103041 -0.16831,-2.82974 -0.52075,-3.82071 -1.73198,-7.200063 -3.56897,-9.957314 -0.72613,-1.089895 -1.3825,-1.882902 -2.30848,-2.789023 -0.52371,-0.512493 -0.69079,-0.642985 -0.73081,-0.570802 -0.12556,0.226487 -0.39482,1.672023 -0.46161,2.478191 -0.12269,1.48107 0.0746,3.493399 0.51872,5.289489 0.7283,2.945698 2.10738,5.618259 4.10724,7.95951 0.47483,0.555884 1.66134,1.741171 2.21399,2.211675 0.27408,0.233345 0.3211,0.253615 0.37308,0.160853 0.0354,-0.0632 0.0456,-0.853329 0.0251,-1.952839 z M 97.299526,32.60218 c -5.3e-4,-0.02096 -0.04441,-0.294978 -0.09732,-0.60892 -0.136662,-0.811026 -0.207909,-2.516707 -0.146915,-3.516853 0.176442,-2.892827 1.121697,-5.512813 2.847177,-7.891634 0.908592,-1.252629 2.885642,-5.02186 3.528232,-6.726578 l 0.16374,-0.434398 -0.17758,0.113585 c -0.96008,0.614016 -2.22563,1.660173 -3.25831,2.693445 -2.900511,2.902171 -4.965431,6.645473 -5.843699,10.59351 -0.347993,1.564358 -0.552401,3.728443 -0.476623,5.046252 l 0.04401,0.765242 1.709186,0.0021 c 0.940053,0.0013 1.708685,-0.0149 1.708075,-0.03589 z M 151.635,59.090468 c -2.61062,-2.718996 -4.65552,-6.238804 -5.68989,-9.793837 l -0.20407,-0.701365 -0.46217,0.210309 c -0.8602,0.39143 -2.16143,0.846703 -3.14349,1.099826 -2.20876,0.56932 -3.69498,0.738662 -5.93175,0.675874 -2.15186,-0.0604 -2.5328,-0.122164 -1.12375,-0.182207 2.37034,-0.100992 4.36638,-0.495067 6.52113,-1.287448 0.87646,-0.322299 2.79491,-1.250871 3.43489,-1.662554 l 0.38475,-0.247505 -0.14101,-0.849663 c -0.39232,-2.36402 -0.37638,-5.168657 0.0429,-7.540731 0.87146,-4.930609 3.2754,-9.470457 6.87853,-12.990123 l 0.79984,-0.781311 -0.29276,-0.518848 c -1.03149,-1.828086 -2.44963,-3.347171 -4.18256,-4.480276 -2.00847,-1.313254 -5.01255,-2.101061 -7.04009,-1.846231 -3.21782,0.404437 -5.95719,2.517874 -6.99339,5.395417 -0.25757,0.71529 -0.41146,1.421779 -0.45661,2.096182 -0.14077,2.10271 1.10468,4.213268 3.05736,5.181042 1.61057,0.798222 3.17791,0.769219 4.42538,-0.0819 1.61694,-1.10319 2.20805,-3.249654 1.26989,-4.611246 -0.89911,-1.304902 -2.63033,-1.650155 -3.59246,-0.716431 -0.51321,0.498055 -0.74408,1.143151 -0.61509,1.718709 0.0963,0.429591 0.51647,0.923181 0.91159,1.070818 0.18334,0.06851 0.20798,0.08855 0.0778,0.06329 -0.95468,-0.185288 -1.48117,-1.13353 -1.21196,-2.182821 0.18796,-0.73261 0.65614,-1.290678 1.36838,-1.631115 0.42054,-0.201005 1.22639,-0.266959 1.80256,-0.147521 1.3004,0.269564 2.45795,1.395374 2.80619,2.729229 0.14507,0.555726 0.0984,1.735308 -0.0952,2.41005 -0.16806,0.585326 -0.60156,1.413704 -1.00248,1.915578 -0.68232,0.854128 -1.9248,1.631419 -3.03227,1.896982 -1.01754,0.244 -2.47848,0.164241 -3.65212,-0.199386 -0.6111,-0.189348 -1.87419,-0.832355 -2.38181,-1.212536 -0.95005,-0.711535 -1.7608,-1.665141 -2.31439,-2.722194 -0.61444,-1.173219 -0.87029,-2.071641 -0.95347,-3.348113 -0.25266,-3.877377 1.71795,-7.826911 5.00846,-10.038024 2.72419,-1.830566 5.74033,-2.359676 9.34278,-1.638949 0.50653,0.101336 1.18781,0.268346 1.51395,0.371135 0.58692,0.184958 0.59265,0.185473 0.55871,0.04979 -0.24392,-0.974986 -0.38298,-2.656396 -0.33201,-4.014351 0.0351,-0.9361445 0.0275,-1.0917575 -0.0551,-1.1234315 -0.0528,-0.02021 -0.41787,-0.08775 -0.81132,-0.150063 -1.11268,-0.176227 -3.73105,-0.158333 -4.83771,0.03306 -3.6142,0.625078 -6.53248,2.1364515 -8.93975,4.6298965 -1.89064,1.958316 -3.14532,4.128074 -3.96782,6.861742 l -0.21945,0.729357 0.0353,-0.661855 c 0.0519,-0.972233 0.20576,-1.942609 0.4789,-3.020776 0.30586,-1.20729 0.5865,-1.96843 1.1677,-3.166983 1.33251,-2.747834 3.18369,-4.8936795 5.60868,-6.5014285 2.24888,-1.490996 4.87843,-2.405777 7.66838,-2.667705 1.34142,-0.125937 4.01319,0.0044 4.74909,0.231701 0.0846,0.02616 0.16716,-0.08288 0.3732,-0.493154 0.34633,-0.689659 0.74589,-1.307444 1.21106,-1.872537 0.42788,-0.519805 0.47231,-0.446507 -0.37565,-0.61974 -1.96195,-0.400811 -4.65165,-0.384631 -6.71608,0.04039 -2.02108,0.416102 -4.2144,1.298651 -5.76585,2.320068 -0.26971,0.177569 -0.49039,0.300151 -0.49039,0.272392 0,-0.100379 1.45061,-1.43911 2.0417,-1.88424 1.74975,-1.31767 3.91221,-2.346649 6.02472,-2.86678703 1.74435,-0.429497 2.82245,-0.540789 4.81351,-0.49689 1.60701,0.03544 2.13296,0.100283 3.52696,0.434869 l 0.81392,0.195359 0.5199,-0.128981 c 0.85834,-0.212961 1.53648,-0.286257 2.26245,-0.244556 2.68132,0.154033 5.2956,1.87252503 6.48131,4.26049903 0.50324,1.01349 0.60464,1.460242 0.60464,2.66374 0,0.868792 -0.0209,1.086785 -0.1452,1.515478 -0.32042,1.104919 -0.91597,2.0886765 -1.71627,2.8349795 -0.67871,0.632911 -0.7718,0.647624 -0.3296,0.05207 1.11354,-1.499622 1.51871,-3.2494185 1.11782,-4.8274495 -0.2674,-1.052577 -0.75567,-1.853641 -1.63109,-2.675968 -1.19783,-1.125189 -2.65832,-1.674649 -4.27807,-1.609483 -0.64141,0.02582 -0.86473,0.06385 -1.36975,0.233331 -0.8072,0.270896 -1.38598,0.62487 -1.9705,1.205094 -0.55481,0.550741 -0.78582,0.870613 -1.13431,1.570669 -0.43607,0.875976 -0.83312,2.382126 -0.83312,3.160273 v 0.263344 l 0.93684,0.459582 c 2.20885,1.0835775 4.00469,2.3946595 5.79645,4.2317705 0.87513,0.897274 1.6618,1.832755 2.24191,2.665978 0.17821,0.255965 0.35212,0.465386 0.38648,0.465386 0.12927,0 1.29408,-0.941928 1.99771,-1.615438 1.41111,-1.350724 2.81194,-3.217333 3.5711,-4.758509 1.03719,-2.1056355 1.49082,-4.7834555 1.17017,-6.9077245 -0.0522,-0.345901 -0.0839,-0.639913 -0.0704,-0.653365 0.0424,-0.04236 0.40674,0.885255 0.57387,1.461131 0.29912,1.030695 0.37736,1.635327 0.37902,2.92884 0.002,1.318544 -0.0869,2.039778 -0.39493,3.2153485 l -0.17568,0.670425 0.14959,0.181763 c 0.64992,0.789672 2.0968,2.692217 3.44217,4.526193 1.56495,2.133303 2.66357,3.567885 3.42683,4.47478 l 0.37659,0.447458 -1.07532,0.328935 c -0.59143,0.180918 -1.51083,0.487647 -2.04313,0.681624 l -0.96781,0.352687 -0.15879,-0.183753 c -0.59933,-0.693578 -1.87253,-2.235208 -2.89174,-3.501413 -1.23292,-1.531706 -2.43413,-2.980852 -2.47083,-2.980852 -0.0114,0 -0.22244,0.26796 -0.46897,0.595467 -0.63857,0.848325 -1.29744,1.621071 -2.17064,2.545794 l -0.75932,0.804131 0.0951,0.183667 c 0.0523,0.101013 0.11038,0.183663 0.12903,0.183663 0.0187,0 0.26801,-0.1956 0.55412,-0.434665 0.60132,-0.502432 1.40768,-1.111717 2.06052,-1.55693 0.37041,-0.252606 0.47319,-0.296562 0.54817,-0.234421 0.10864,0.09003 2.57989,3.151286 2.57989,3.195829 0,0.0167 -0.26438,0.226048 -0.58752,0.46524 -1.06459,0.788023 -2.25967,1.850538 -3.06547,2.725432 l -0.54716,0.59407 0.12815,0.841411 c 0.0705,0.462774 0.15091,1.004465 0.17874,1.203765 l 0.0506,0.362351 0.85745,-0.480425 c 1.32647,-0.743211 3.72235,-1.928871 4.98594,-2.467411 3.6116,-1.539271 6.58274,-2.365411 10.06714,-2.79922 1.32641,-0.165139 5.11629,-0.16533 6.3515,0 3.91089,0.522459 7.05773,1.734062 10.63878,4.096144 1.72329,1.136696 5.01614,3.725273 4.85065,3.813208 -0.0998,0.05302 -1.90452,0.231573 -2.95644,0.292498 l -0.70991,0.04111 -1.19554,-0.795678 c -2.24736,-1.495704 -3.92889,-2.372125 -5.92741,-3.089395 -4.7185,-1.693464 -10.38199,-1.446421 -16.13987,0.70401 -3.14283,1.173776 -6.64766,3.05836 -10.18872,5.478589 -0.82124,0.561294 -0.98932,0.703157 -1.03558,0.874075 -0.0304,0.11222 -0.0524,0.208614 -0.0489,0.214222 0.003,0.0056 0.50941,0.112557 1.12429,0.237657 4.23008,0.860628 8.85594,2.854558 13.80807,5.951829 1.41282,0.883638 4.0415,2.597177 4.01888,2.619761 -0.0344,0.03438 -2.22809,-0.15794 -3.3046,-0.289713 -1.29736,-0.158804 -3.06543,-0.446873 -4.04882,-0.659662 -0.56542,-0.122342 -0.92413,-0.250359 -1.58788,-0.566692 -3.74031,-1.782544 -7.94508,-3.054435 -10.74815,-3.251184 l -0.59079,-0.04147 -0.14956,0.360307 c -0.0822,0.198171 -0.13908,0.369798 -0.12628,0.381399 0.0612,0.05548 1.00846,0.508158 1.86522,0.891375 2.68354,1.200319 5.51653,2.188682 8.46927,2.954722 l 1.03802,0.2693 -0.0355,0.177067 c -0.089,0.444218 -0.17936,2.252959 -0.14625,2.926513 0.0366,0.743613 0.0363,0.745553 -0.10313,0.71553 -0.0769,-0.01653 -0.66856,-0.13377 -1.31482,-0.260471 -3.89374,-0.763383 -8.09696,-2.073897 -11.53395,-3.596167 l -0.64112,-0.283956 -0.38424,0.483506 c -1.09106,1.372891 -2.51122,2.730207 -4.02966,3.851351 -1.12539,0.83092 -1.15931,0.802896 -0.20724,-0.171221 2.04556,-2.092927 3.56098,-4.124091 4.62087,-6.193506 0.44969,-0.87804 1.06021,-2.314068 1.06021,-2.493839 0,-0.155099 -2.01906,0.0421 -3.32862,0.325103 -0.31112,0.06724 -0.57117,0.129675 -0.57786,0.13875 -0.007,0.0091 -0.24284,0.487413 -0.52474,1.062972 -1.7362,3.54474 -4.29789,6.474909 -7.51615,8.597353 -0.47301,0.311948 -0.90717,0.595721 -0.9648,0.630603 -0.0964,0.05835 -0.0919,0.131943 0.0553,0.919625 0.65661,3.511125 2.12573,7.087241 4.24696,10.337851 0.62978,0.9651 0.62132,0.95133 0.58532,0.95133 -0.016,0 -0.36481,-0.34961 -0.7751,-0.77692 z m -3.58784,-13.894329 c 3.34388,-2.963139 5.59274,-7.175944 6.26926,-11.744164 0.14132,-0.954284 0.16155,-3.562194 0.0329,-4.249299 -0.15773,-0.842794 -0.35127,-1.617271 -0.40415,-1.617271 -0.11026,0 -1.5787,1.517489 -2.07881,2.148238 -2.82851,3.567355 -4.47664,8.38097 -4.68241,13.675647 -0.0439,1.130617 0.0141,2.46155 0.10601,2.429082 0.0296,-0.01046 0.37033,-0.299475 0.75714,-0.642233 z m 13.31547,-12.846952 c 0.0762,-0.507797 -0.0249,-2.967538 -0.15936,-3.875868 -0.5867,-3.962581 -2.10155,-7.4119 -4.66545,-10.62325 -0.68075,-0.852656 -2.52131,-2.67059 -3.34413,-3.303003 -0.94277,-0.724627 -1.52413,-1.126364 -1.52413,-1.053245 0,0.148992 0.61938,1.58752 1.11103,2.580422 0.73517,1.484663 2.07146,3.887876 2.40695,4.328717 1.29782,1.705327 2.32661,3.993689 2.73007,6.072553 0.36184,1.864384 0.37973,3.869635 0.0521,5.841334 l -0.0537,0.323589 1.70198,-0.0035 1.702,-0.0035 0.0427,-0.28424 z m 15.31695,21.092951 c -1.25613,-2.192422 -2.01929,-4.682081 -2.27638,-7.426241 -0.0785,-0.837598 -0.0539,-3.570349 0.0333,-3.711325 0.0622,-0.100525 1.6867,0.748963 1.68541,0.881344 -5.3e-4,0.05309 -0.0441,0.2794 -0.0968,0.502908 -0.3293,1.394961 -0.445,3.942568 -0.25035,5.512484 0.19029,1.534859 0.55551,3.040511 1.01128,4.169151 0.12379,0.306559 0.21747,0.564986 0.20816,0.574282 -0.009,0.0093 -0.15086,-0.216878 -0.31457,-0.502603 z m -98.433299,0.454067 c 0,-0.02268 0.09932,-0.298421 0.220902,-0.612805 0.448466,-1.159514 0.811723,-2.661135 0.992496,-4.102673 0.187695,-1.496654 0.07442,-3.880557 -0.259131,-5.454326 -0.113327,-0.534694 -0.114187,-0.576041 -0.0137,-0.653613 0.186334,-0.143842 1.543246,-0.851068 1.573993,-0.820367 0.07512,0.07503 0.159118,1.947891 0.122969,2.742428 -0.12676,2.786138 -0.675831,5.058335 -1.777772,7.356994 -0.358165,0.747124 -0.859354,1.647386 -0.859754,1.544362 z M 50.426503,52.402938 c -3.419533,-0.201411 -6.967515,-1.1423 -10.130657,-2.68654 -2.137467,-1.043508 -3.971803,-2.289149 -6.548035,-4.446549 -0.597152,-0.500075 -1.709296,-1.431063 -2.471417,-2.06887 -2.126655,-1.779759 -3.764444,-2.964814 -5.210787,-3.770352 -0.326409,-0.181795 -0.583789,-0.340212 -0.571947,-0.35204 0.03231,-0.03223 1.324445,0.624399 2.041416,1.037355 1.132759,0.65244 2.436008,1.55298 4.658126,3.218743 2.861119,2.144766 3.739228,2.776036 4.806052,3.455028 2.429787,1.546474 4.791097,2.566236 7.520346,3.247766 1.969388,0.491785 3.463022,0.690931 5.567542,0.742314 4.287739,0.104705 8.131222,-0.812642 12.737665,-3.040176 l 1.187893,-0.574421 0.781076,0.108135 c 0.429591,0.05946 1.420337,0.170737 2.201642,0.247261 l 1.420588,0.139126 -1.833436,0.899606 c -3.813836,1.871341 -6.589055,2.85385 -9.709286,3.437381 -2.009928,0.375886 -4.402455,0.526645 -6.446781,0.406233 z m 151.261187,0.0026 c -2.99103,-0.237561 -5.09107,-0.669658 -7.81235,-1.607427 -1.75198,-0.603744 -3.12511,-1.192443 -5.36703,-2.300995 l -1.68314,-0.832261 1.39733,-0.140068 c 0.76853,-0.07704 1.75653,-0.188809 2.19557,-0.248389 l 0.79824,-0.108325 1.04369,0.50949 c 3.46245,1.690239 6.39472,2.595049 9.74527,3.007109 1.01187,0.124448 4.24804,0.10366 5.36702,-0.03447 4.46729,-0.551458 8.14627,-1.964658 11.9726,-4.599042 0.38427,-0.264566 1.67044,-1.211336 2.85817,-2.103942 3.23944,-2.434505 4.35712,-3.204427 5.93088,-4.085523 0.6513,-0.364654 1.802,-0.92452 1.89633,-0.922655 0.0268,5.29e-4 -0.24403,0.156676 -0.60178,0.347003 -1.81806,0.967222 -3.28275,2.046252 -6.71731,4.948632 -3.7774,3.192099 -5.30585,4.263075 -7.87586,5.518514 -3.07289,1.501099 -6.31614,2.372416 -9.78133,2.627798 -0.81123,0.05978 -2.74506,0.0739 -3.3663,0.02455 z M 70.338482,46.38409 c -5.183591,-0.260426 -9.141691,-0.901753 -13.655743,-2.212631 -2.542254,-0.738262 -5.058332,-1.631115 -9.209687,-3.268128 -1.257599,-0.495914 -2.322993,-0.916005 -2.367533,-0.933528 -0.04451,-0.01751 0.416819,-0.327019 1.025254,-0.687752 l 1.106243,-0.655883 2.182257,0.728483 c 5.568403,1.858853 9.095401,2.761284 12.852794,3.28857 4.746567,0.666107 9.126527,0.706659 13.970547,0.129344 0.697147,-0.08309 1.279634,-0.138977 1.294428,-0.124208 0.06802,0.06797 0.385962,1.532787 0.474823,2.187891 0.159928,1.179032 0.16621,1.274351 0.08582,1.302765 -0.398715,0.14095 -6.190551,0.323892 -7.759224,0.245077 z m 110.198688,-0.0019 c -0.31441,-0.01281 -1.16506,-0.06621 -1.89035,-0.118677 -0.72529,-0.05245 -1.37947,-0.09537 -1.45373,-0.09537 -0.12983,0 -0.13334,-0.01889 -0.0912,-0.491523 0.0645,-0.724513 0.21294,-1.609134 0.3963,-2.362483 0.0891,-0.366264 0.16925,-0.673646 0.17802,-0.683064 0.009,-0.0094 0.59892,0.05424 1.31144,0.141487 6.32094,0.773943 12.68436,0.417884 18.79389,-1.051607 2.49378,-0.599809 4.38047,-1.154591 7.85181,-2.308821 l 2.35775,-0.783958 1.00855,0.597121 c 0.5547,0.32842 1.05052,0.621863 1.10185,0.652104 0.13195,0.07776 -4.62338,1.963082 -7.61984,3.021004 -5.59925,1.976868 -10.39607,3.003074 -15.87878,3.397017 -0.95635,0.06872 -5.06624,0.127516 -6.06568,0.08677 z M 26.927631,42.833239 c -1.673407,-0.182035 -3.28368,-0.541006 -4.818454,-1.074161 -2.088006,-0.725336 -3.57763,-1.557709 -6.503605,-3.634076 -3.334763,-2.366461 -4.916058,-3.175604 -7.0990266,-3.632555 -0.8516524,-0.178274 -2.2656782,-0.196001 -2.9809181,-0.03737 -0.2596417,0.05758 -0.4831647,0.09362 -0.496718,0.08008 -0.047311,-0.04726 0.8704668,-0.227287 1.5164902,-0.297464 1.5645117,-0.169953 3.6446355,0.270212 5.5517085,1.174754 0.946986,0.449169 1.80999,0.950181 3.61839,2.100642 2.237331,1.423339 2.818299,1.765212 3.87442,2.279922 2.046636,0.997443 4.199718,1.59905 6.605569,1.845698 0.816164,0.08368 1.05376,0.130347 1.206787,0.237043 0.387912,0.27047 1.365575,1.010598 1.365575,1.033785 0,0.05087 -1.084408,0.0059 -1.840218,-0.07631 z M 226.80791,42.622804 c 0.22708,-0.179494 0.59863,-0.453492 0.8257,-0.608888 0.40487,-0.277073 0.42697,-0.283814 1.14327,-0.348917 2.52476,-0.229463 4.88328,-0.87877 6.95135,-1.913734 1.0418,-0.521364 1.36744,-0.713697 3.52863,-2.084104 3.31592,-2.102603 4.55004,-2.710741 6.43479,-3.170865 1.39848,-0.341403 3.03734,-0.379076 4.01344,-0.09224 0.17468,0.05132 0.23184,0.08008 0.12703,0.0639 -0.98699,-0.152348 -1.46647,-0.174093 -2.20727,-0.100121 -2.26864,0.226572 -4.30278,1.138739 -7.35174,3.296728 -1.57907,1.117629 -3.15894,2.177539 -3.83274,2.571329 -2.67275,1.562043 -5.97816,2.520791 -9.21961,2.674191 l -0.82571,0.03907 z M 32.741042,42.045615 c -0.411768,-0.313941 -0.732504,-0.570801 -0.712759,-0.570801 0.136492,0 1.56086,-0.299412 2.292984,-0.481993 1.997084,-0.49806 3.833621,-1.190705 6.038094,-2.277238 2.61017,-1.286503 5.213519,-2.971851 7.884333,-5.104157 l 0.326038,-0.260296 1.166566,0.282145 c 0.641613,0.155176 1.280895,0.307746 1.420629,0.339038 l 0.25406,0.0569 -1.111514,0.827726 c -5.605351,4.174205 -10.716626,6.6272 -15.910529,7.635762 -0.349333,0.06784 -0.694576,0.123419 -0.767203,0.123527 -0.07262,0 -0.468941,-0.25667 -0.880699,-0.57061 z m 187.770838,0.382474 c -4.52375,-0.945906 -9.13574,-3.03877 -13.74298,-6.236386 -0.98413,-0.68302 -2.88976,-2.092431 -2.8898,-2.137309 -1e-5,-0.01743 0.62644,-0.183081 1.39212,-0.36809 l 1.39216,-0.336386 0.87845,0.693378 c 3.76176,2.9692 7.66423,5.143822 11.51222,6.415103 1.02974,0.340197 2.73548,0.777489 3.49835,0.896849 0.262,0.04099 0.51401,0.094 0.56002,0.117807 0.13281,0.06871 -1.33856,1.144294 -1.55907,1.139682 -0.0968,-0.0021 -0.56545,-0.08512 -1.04147,-0.184648 z M 64.463337,40.097905 c -0.54847,-0.0439 -2.101929,-0.273374 -2.937358,-0.43391 -1.577325,-0.303095 -3.851555,-0.95268 -5.878036,-1.678935 -1.748605,-0.626664 -4.775315,-1.802876 -4.759671,-1.849651 0.02671,-0.07992 1.375157,-1.066256 1.457716,-1.066269 0.04471,-6e-6 0.9244,0.212757 1.954935,0.472813 4.527695,1.142573 6.771759,1.492311 9.605632,1.497035 1.790676,0.003 2.886605,-0.130993 4.493037,-0.549277 1.81037,-0.471384 3.571688,-1.330049 4.792208,-2.33625 l 0.185674,-0.153077 -0.693794,-0.449119 c -0.381602,-0.247018 -1.198765,-0.705905 -1.815932,-1.01975 l -1.122116,-0.570629 -1.099091,0.318411 C 62.354866,34.102011 56.076115,33.991778 48.51834,31.925894 47.276525,31.586453 44.821402,30.846477 44.424327,30.691957 l -0.190545,-0.07415 0.444606,-0.197004 c 0.244528,-0.108356 0.877998,-0.412509 1.407704,-0.675903 l 0.963098,-0.478896 0.847082,0.205329 c 3.827329,0.927742 7.085562,1.368344 10.152041,1.372828 1.85228,0.0027 2.751714,-0.06154 4.446056,-0.317587 3.819818,-0.577253 7.70199,-1.959002 11.078851,-3.943224 l 0.821166,-0.482504 0.830227,0.142339 c 0.890491,0.15267 2.442211,0.530739 3.37027,0.82115 l 0.571087,0.178698 -0.507572,0.358698 c -0.630689,0.445725 -2.497593,1.561242 -3.429254,2.049075 -0.384272,0.201203 -0.710009,0.374744 -0.723872,0.385639 -0.0139,0.01088 0.366887,0.396112 0.846091,0.856031 1.052921,1.010535 1.716748,1.790713 2.420596,2.844806 0.470561,0.704717 1.395841,2.398761 1.340418,2.454097 -0.0117,0.01165 -0.555443,0.332421 -1.208397,0.712823 L 76.716798,37.59585 76.554459,37.350904 76.392121,37.105961 75.8424,37.478714 c -2.013588,1.365306 -4.62968,2.261425 -7.504643,2.570649 -0.778485,0.08373 -3.07524,0.112503 -3.87442,0.04854 z m 122.869953,0.0076 c -0.10481,-0.01427 -0.46207,-0.05629 -0.79395,-0.09338 -2.56544,-0.286732 -5.42127,-1.304531 -7.22034,-2.573268 -0.21586,-0.152228 -0.42205,-0.276776 -0.45819,-0.276776 -0.0361,0 -0.13213,0.09759 -0.2133,0.21686 l -0.14758,0.216855 -1.07738,-0.625404 c -0.59255,-0.343971 -1.13283,-0.66525 -1.20059,-0.713951 -0.11925,-0.0857 -0.11271,-0.109797 0.20345,-0.748918 0.89603,-1.811311 2.14365,-3.4609 3.62565,-4.793759 0.37216,-0.334711 0.68401,-0.626804 0.69303,-0.64911 0.009,-0.0223 -0.23395,-0.164169 -0.53988,-0.315259 -1.18853,-0.586988 -4.08134,-2.346084 -4.08134,-2.481832 0,-0.123441 2.61957,-0.810895 3.87442,-1.016763 l 0.85745,-0.140672 0.8257,0.489639 c 1.12014,0.664249 3.01713,1.586652 4.28726,2.084671 3.3029,1.295058 6.26274,1.945418 9.7604,2.144638 3.12435,0.177957 7.24724,-0.300957 11.45365,-1.330453 l 0.98448,-0.24095 1.048,0.51971 c 0.57639,0.285836 1.19805,0.583763 1.38145,0.662047 0.1834,0.07829 0.33345,0.162182 0.33345,0.186422 0,0.08821 -3.61821,1.162165 -5.43053,1.611898 -4.19138,1.040091 -7.57461,1.440585 -11.0295,1.305627 -2.91416,-0.113835 -5.68615,-0.577443 -8.36544,-1.399098 l -0.59445,-0.182299 -0.78826,0.376517 c -0.81562,0.389586 -2.06751,1.106049 -2.56098,1.465668 l -0.28266,0.205983 0.21915,0.186462 c 0.67166,0.571517 1.8221,1.245697 2.82658,1.656434 2.00454,0.819662 3.96099,1.186383 6.32168,1.184939 2.80712,-0.0016 5.11299,-0.352634 9.4684,-1.440957 l 2.2012,-0.550032 0.70462,0.525088 c 0.38755,0.288793 0.70463,0.543874 0.70463,0.566837 0,0.02297 -0.79315,0.348544 -1.76254,0.72351 -4.92582,1.905304 -7.39691,2.625514 -10.62768,3.097485 -0.71779,0.104864 -1.29442,0.137925 -2.66286,0.152691 -0.96066,0.01035 -1.83241,0.0072 -1.9372,-0.0071 z M 39.058052,37.631967 c -0.398394,-0.172522 -3.119961,-1.081581 -4.224503,-1.411071 -4.182123,-1.247557 -7.546303,-1.825866 -11.019877,-1.894344 -3.23881,-0.06386 -5.263041,0.208628 -8.638053,1.162759 -0.05241,0.01482 -0.195306,-0.03484 -0.317575,-0.110342 l -0.222293,-0.137282 0.553551,-0.213005 c 1.774603,-0.682836 4.410359,-1.254692 6.877705,-1.492183 1.166226,-0.112252 4.372848,-0.09472 5.717808,0.03126 3.734117,0.349767 7.482107,1.158821 12.304602,2.656089 0.689935,0.21421 1.254428,0.408541 1.254428,0.431844 0,0.06774 -1.974348,1.099687 -2.056118,1.074698 -0.004,-0.0013 -0.107826,-0.04565 -0.229675,-0.09843 z M 214.85123,37.211401 c -0.55018,-0.285293 -0.97891,-0.538837 -0.95272,-0.563419 0.0707,-0.06638 1.69859,-0.581084 3.28921,-1.039976 8.02182,-2.314261 14.21376,-2.757003 19.97314,-1.428132 1.24738,0.287806 3.36631,0.962018 3.36631,1.071104 0,0.02366 -0.0929,0.09239 -0.20642,0.152771 -0.2014,0.107094 -0.22268,0.10506 -0.87334,-0.08364 -1.37702,-0.399344 -2.97939,-0.712106 -4.60484,-0.898809 -0.93925,-0.107881 -4.6408,-0.10741 -5.6846,7.93e-4 -3.80002,0.393677 -7.7162,1.328794 -12.13062,2.896608 -0.64148,0.227833 -1.16847,0.413615 -1.17107,0.412859 -0.003,-7.92e-4 -0.45487,-0.2348 -1.00505,-0.520094 z M 44.551358,33.988505 c -1.634329,-0.469941 -4.143635,-0.926062 -5.269862,-0.957927 -0.214682,-0.0061 -0.12155,-0.02608 0.283927,-0.06101 1.09497,-0.09432 3.587092,0.08393 5.43054,0.388418 1.267691,0.209389 1.190823,0.152316 0.689983,0.512357 -0.237836,0.170981 -0.447506,0.308608 -0.46594,0.305836 -0.0184,-0.0028 -0.319316,-0.08723 -0.668648,-0.187674 z M 209.54893,33.883624 c -0.21766,-0.163258 -0.38517,-0.307377 -0.37225,-0.320278 0.0477,-0.0476 1.43303,-0.27623 2.40251,-0.396491 1.30785,-0.162235 3.36185,-0.264807 4.08182,-0.203848 l 0.57164,0.0484 -0.63515,0.04817 c -1.52849,0.115923 -2.66998,0.340605 -5.52582,1.087644 -0.0863,0.02257 -0.25396,-0.06198 -0.52275,-0.263601 z M 4.0315324,31.644324 c 2.6365363,-3.732947 7.2681866,-6.438822 12.7497686,-7.448603 1.576885,-0.290483 2.396179,-0.363494 4.465501,-0.397957 3.185406,-0.05305 5.471519,0.176727 9.077176,0.912363 2.328473,0.475065 4.416079,1.020289 9.006139,2.352151 0.368458,0.106917 0.537238,0.183463 0.495788,0.224851 -0.08912,0.08899 -2.052278,0.669989 -2.547025,0.753788 l -0.412848,0.06993 -1.683151,-0.553067 C 30.468542,26.008691 27.108264,25.228989 23.369066,24.816573 21.985007,24.663915 18.915648,24.663159 17.684465,24.815275 13.119651,25.378878 9.5523638,26.771417 6.5693352,29.154204 5.9152298,29.676684 4.787342,30.78624 4.3301333,31.35701 3.8523999,31.953403 3.7303009,32.070932 4.0315324,31.644435 Z M 250.97014,31.438201 c -0.47044,-0.601896 -1.76152,-1.855638 -2.51152,-2.438877 -2.96639,-2.306812 -6.70643,-3.717991 -11.17073,-4.214892 -1.07469,-0.119619 -4.16471,-0.100847 -5.43053,0.03299 -3.89613,0.411954 -7.06916,1.177323 -13.22813,3.190793 -0.29275,0.0957 -0.38324,0.09933 -0.72413,0.02903 -0.70644,-0.145702 -2.41929,-0.660588 -2.5435,-0.764578 -0.10329,-0.08649 5.45934,-1.642822 7.82595,-2.189562 3.88676,-0.897927 6.36053,-1.231225 9.5377,-1.285044 2.14592,-0.03635 3.23697,0.01914 4.78495,0.243262 5.7527,0.832958 10.78879,3.598718 13.58431,7.460299 0.33261,0.459481 0.25232,0.418529 -0.12437,-0.06343 z m -220.487374,0.10535 c -0.122269,-0.01366 -0.536708,-0.05527 -0.920969,-0.09245 -3.877292,-0.375194 -7.91195,-1.662809 -11.210423,-3.577668 -0.84079,-0.488112 -2.220017,-1.379775 -2.221808,-1.436397 -7.9e-4,-0.02108 0.260932,-0.07589 0.581338,-0.121746 0.536528,-0.0768 0.597992,-0.07434 0.778055,0.03108 5.989363,3.50613 13.208087,4.607288 19.980466,3.047858 2.757995,-0.635059 5.281865,-1.675624 7.971143,-3.286399 1.738834,-1.041499 2.914232,-1.860192 6.573812,-4.578838 3.103908,-2.305848 3.768565,-2.78149 5.208237,-3.727188 4.439184,-2.916021 8.21096,-4.354369 13.021923,-4.965857 1.274083,-0.161936 4.640572,-0.196197 6.096359,-0.06205 1.850699,0.170543 3.900845,0.539136 5.430299,0.976298 1.080916,0.308963 1.93721,0.597072 1.93721,0.651805 0,0.128157 -2.329013,3.225985 -2.425366,3.225985 -0.03931,0 -0.388512,-0.102459 -0.776104,-0.227687 -5.208107,-1.682695 -10.891998,-1.683552 -15.931894,-0.0024 -1.26425,0.421722 -2.328824,0.88047 -3.827339,1.649306 -1.985813,1.01885 -3.077012,1.710748 -9.082658,5.759113 -6.321742,4.261435 -10.064711,5.847634 -15.561196,6.594533 -0.773684,0.10513 -1.370516,0.133042 -3.175754,0.148503 -1.222671,0.01046 -2.323072,0.0079 -2.445331,-0.0058 z m 190.068904,-0.0019 c -4.19688,-0.314186 -8.03047,-1.465302 -11.89159,-3.570703 -1.55588,-0.848389 -2.81712,-1.632689 -5.19396,-3.229844 -6.02179,-4.046416 -6.47011,-4.333726 -8.44088,-5.409546 -4.95489,-2.704806 -10.08952,-3.682673 -15.6164,-2.97406 -1.58332,0.202996 -3.50412,0.640121 -4.9825,1.133878 l -0.54207,0.181053 -0.70865,-0.957769 c -1.35782,-1.83519 -1.68785,-2.289865 -1.6886,-2.326483 -0.001,-0.063 1.66862,-0.567124 2.83819,-0.856799 1.20945,-0.299557 2.44832,-0.523495 3.89366,-0.703825 0.74971,-0.09353 1.38158,-0.114647 3.39805,-0.113494 2.21517,0.0013 2.59126,0.01669 3.55684,0.145987 5.37868,0.720172 9.42923,2.450951 14.92578,6.377697 0.48921,0.349494 2.04705,1.495111 3.46185,2.545811 2.82229,2.095965 3.5768,2.634339 4.95417,3.535033 4.59518,3.004862 8.84592,4.440033 14.03684,4.739242 1.75071,0.100918 4.30049,-0.05946 6.12921,-0.385539 3.05479,-0.544685 6.29442,-1.710502 8.70067,-3.131043 0.52551,-0.310234 0.58298,-0.319203 1.30294,-0.203287 l 0.47637,0.0767 -0.66691,0.448784 c -3.66621,2.467074 -7.76339,3.959879 -12.53483,4.567053 -0.73348,0.09333 -4.58797,0.172564 -5.40818,0.111158 z M 12.19042,23.648263 C 11.183851,22.915258 9.3799729,21.872874 8.3669222,21.438821 6.6922444,20.721287 5.4172716,20.423913 3.8064289,20.375127 c -1.2258912,-0.03713 -1.8640728,0.0378 -2.7707281,0.3253 -0.58672943,0.186049 -0.69619543,0.16906 -0.17217091,-0.02672 1.61410341,-0.603034 3.73180641,-0.673051 5.79364621,-0.191554 1.0749253,0.251025 2.1212238,0.651792 3.4690039,1.328731 1.192703,0.599056 3.143997,1.743409 3.143997,1.843833 0,0.03285 -0.6284,0.25591 -0.704248,0.24998 -0.0144,-0.0011 -0.183383,-0.11652 -0.375509,-0.256434 z m 230.14693,0.15813 c -0.13973,-0.05028 -0.29396,-0.106056 -0.34273,-0.123941 -0.17451,-0.06402 2.0278,-1.379894 3.45497,-2.06434 2.01382,-0.96581 3.54347,-1.367477 5.46229,-1.434343 1.04306,-0.03635 1.82045,0.02805 2.52999,0.209575 0.4292,0.109807 1.45647,0.473534 1.4253,0.504656 -0.0116,0.0116 -0.26322,-0.05984 -0.55912,-0.15879 -1.55362,-0.519503 -3.50193,-0.518832 -5.46041,0.0019 -1.69425,0.450471 -3.24698,1.201748 -5.31257,2.570433 -0.49404,0.327367 -0.90848,0.593202 -0.92096,0.590743 -0.0125,-0.0024 -0.13703,-0.0456 -0.27676,-0.09588 z M 0.21408557,20.961267 c 0.067816,-0.05425 0.1511759,-0.09864 0.1852541,-0.09864 0.080719,0 0.044611,0.0293 -0.1497556,0.121753 -0.1497256,0.07121 -0.1517561,0.06988 -0.035508,-0.02313 z" />
  </g>
</svg>
